<?xml version="1.0" encoding="UTF-8"?>
<svg id="Camada_1" data-name="Camada 1" xmlns="http://www.w3.org/2000/svg" viewBox="0 0 2000 2000">
  <defs>
    <style>
      .cls-1 {
        fill: #95c11f;
      }
    </style>
  </defs>
  <path class="cls-1" d="M1649.11,493.14l-1002.25,921.49c-11.47,10.55-5.63,29.68,9.77,32.03l23.24,3.54c5.71.87,10.7,4.32,13.48,9.39,20.9,38.15,41.74,79.59,61.77,124.29,10.62,23.69,20.38,46.9,29.36,69.54,3.68,9.27,14.05,13.91,23.44,10.54,5.75-2.06,12.02-4.84,18.49-8.59,13.28-7.7,22.72-16.77,28.94-23.97,2.46-2.84,3.96-6.36,4.33-10.1,2.17-22.28,3.79-45.48,4.71-69.54,2.69-70.71-1.22-135.59-8.5-193.33-.82-6.54,1.82-13.02,7.03-17.06,85.17-66.07,170.35-132.14,255.52-198.21,6.38-4.95,15.26-5.27,21.89-.66,26.53,18.43,51.3,41.81,71.35,71.51,1.3,1.93,2.57,3.86,3.8,5.79.36.56.68,1.14.98,1.74,14.92,30.19,30.15,60.52,45.71,91,43.08,84.41,86.79,166.24,130.88,245.52,4.27,7.68,13.34,11.23,21.72,8.59,11.56-3.64,25.93-9.75,40.6-20.18,7.26-5.16,13.49-10.59,18.81-15.94,12.66-12.72,17.81-31.09,13.92-48.61l-125.56-565.54,195.2-175.77c19.57-19,42.49-44.75,63.97-78.12,27.7-43.03,43.3-83.68,52.38-114.3,2.73-11,5.2-24.69,6.02-40.51.84-16.52-18.79-25.74-30.97-14.54Z"/>
  <path class="cls-1" d="M1499.31,366.07l-930.39,993.99c-10.65,11.38-29.73,5.37-31.94-10.06l-3.34-23.27c-.82-5.72-4.23-10.74-9.27-13.56-37.97-21.24-79.21-42.45-123.73-62.88-23.6-10.83-46.72-20.8-69.27-29.98-9.23-3.76-13.78-14.18-10.33-23.53,2.11-5.73,4.94-11.97,8.75-18.41,7.81-13.21,16.97-22.56,24.22-28.73,2.87-2.44,6.39-3.91,10.14-4.24,22.3-1.97,45.51-3.39,69.58-4.09,70.73-2.06,135.57,2.43,193.24,10.23,6.53.88,13.04-1.71,17.13-6.88,66.83-84.58,133.66-169.16,200.49-253.74,5.01-6.34,5.4-15.21.85-21.89-18.19-26.69-41.35-51.67-70.87-71.98-1.92-1.32-3.84-2.6-5.76-3.85-.56-.36-1.13-.69-1.73-.99-30.05-15.18-60.25-30.69-90.59-46.52-84.02-43.84-165.46-88.27-244.35-133.06-7.64-4.34-11.11-13.44-8.39-21.8,3.74-11.53,9.98-25.84,20.54-40.42,5.22-7.21,10.71-13.39,16.11-18.67,12.83-12.54,31.25-17.53,48.73-13.48l564.4,130.6,177.5-193.63c19.18-19.4,45.13-42.09,78.69-63.27,43.28-27.32,84.07-42.56,114.77-51.35,11.03-2.63,24.73-4.98,40.56-5.66,16.53-.69,25.57,19.02,14.27,31.1Z"/>
  <path class="cls-1" d="M1604.82,409.37l-6.68-6.64c-19.99-19.89-52.82-18.97-72.53,2.03l-971.95,1035.77L1602.44,482.56c21.55-19.68,22.63-53.04,2.38-73.19Z"/>
</svg>